
<svg
  version="1.0"
  xmlns="http://www.w3.org/2000/svg"
  xmlns:xlink="http://www.w3.org/1999/xlink"
  width="2400"
  height="1800"
>
  
  <rect
    x="0"
    y="0"
    width="100%"
    height="100%"
    fill="#ffffff"
    fill-opacity="1"
  ></rect>
  <svg
    version="1.0"
    xmlns="http://www.w3.org/2000/svg"
    xmlns:xlink="http://www.w3.org/1999/xlink"
    x="0"
    y="0"
    width="2400"
    height="1800"
    viewBox="0 0 340.000000 250.000000"
    preserveAspectRatio="xMidYMid meet"
    color-interpolation-filters="sRGB"
  >
    <defs><linearGradient id="92" x1="0%" y1="0%" x2="100%" y2="0%"><stop offset="0%" stop-color="#fa71cd"/> <stop offset="100%" stop-color="#9b59b6"/></linearGradient><linearGradient id="93" x1="0%" y1="0%" x2="100%" y2="0%"><stop offset="0%" stop-color="#f9d423"/> <stop offset="100%" stop-color="#f83600"/></linearGradient><linearGradient id="94" x1="0%" y1="0%" x2="100%" y2="0%"><stop offset="0%" stop-color="#0064d2"/> <stop offset="100%" stop-color="#1cb0f6"/></linearGradient><linearGradient id="95" x1="0%" y1="0%" x2="100%" y2="0%"><stop offset="0%" stop-color="#f00978"/> <stop offset="100%" stop-color="#3f51b1"/></linearGradient><linearGradient id="96" x1="0%" y1="0%" x2="100%" y2="0%"><stop offset="0%" stop-color="#7873f5"/> <stop offset="100%" stop-color="#ec77ab"/></linearGradient><linearGradient id="97" x1="0%" y1="0%" x2="100%" y2="0%"><stop offset="0%" stop-color="#f9d423"/> <stop offset="100%" stop-color="#e14fad"/></linearGradient><linearGradient id="98" x1="0%" y1="0%" x2="100%" y2="0%"><stop offset="0%" stop-color="#009efd"/> <stop offset="100%" stop-color="#2af598"/></linearGradient><linearGradient id="99" x1="0%" y1="0%" x2="100%" y2="0%"><stop offset="0%" stop-color="#ffcc00"/> <stop offset="100%" stop-color="#00b140"/></linearGradient><linearGradient id="100" x1="0%" y1="0%" x2="100%" y2="0%"><stop offset="0%" stop-color="#d51007"/> <stop offset="100%" stop-color="#ff8177"/></linearGradient><linearGradient id="102" x1="0%" y1="0%" x2="100%" y2="0%"><stop offset="0%" stop-color="#a2b6df"/> <stop offset="100%" stop-color="#0c3483"/></linearGradient><linearGradient id="103" x1="0%" y1="0%" x2="100%" y2="0%"><stop offset="0%" stop-color="#7ac5d8"/> <stop offset="100%" stop-color="#eea2a2"/></linearGradient><linearGradient id="104" x1="0%" y1="0%" x2="100%" y2="0%"><stop offset="0%" stop-color="#00ecbc"/> <stop offset="100%" stop-color="#007adf"/></linearGradient><linearGradient id="105" x1="0%" y1="0%" x2="100%" y2="0%"><stop offset="0%" stop-color="#b88746"/> <stop offset="100%" stop-color="#fdf5a6"/></linearGradient></defs> <g fill="#1A1A1A" class="icon-text-wrapper icon-svg-group iconsvg" transform="translate(79.45500183105469,93.43367958068848)"><g class="iconsvg-imagesvg" transform="translate(0,0)" mask="url(#23d34dc1-8215-4bb0-b133-757ed1d86ec8)"><g><rect fill="#1A1A1A" fill-opacity="0" stroke-width="2" x="0" y="0" width="60" height="63.13264168017004" class="image-rect"/> <svg filter="url(#colors2508222093)" x="0" y="0" width="60" height="63.13264168017004" filtersec="colorsf467655549" class="image-svg-svg primary" style="overflow: visible;"><svg xmlns="http://www.w3.org/2000/svg" viewBox="0 1.6 67.2 70.50001"><path d="M2 53.2V3.6l31.6 19.8m31.6 29.8V3.6L23.1 30 2 16.6m31.6 33.7l31.6 19.8V20.5M2 20.5v49.6l42.1-26.4 21.1 13.4" fill="none" stroke="#333" stroke-width="4" stroke-miterlimit="10"/></svg></svg> <defs><filter id="colors2508222093"><feColorMatrix type="matrix" values="0 0 0 0 0.1015625  0 0 0 0 0.1015625  0 0 0 0 0.1015625  0 0 0 1 0" class="icon-feColorMatrix "/></filter> <filter id="colorsf467655549"><feColorMatrix type="matrix" values="0 0 0 0 0.99609375  0 0 0 0 0.99609375  0 0 0 0 0.99609375  0 0 0 1 0" class="icon-fecolormatrix"/></filter> <filter id="colorsb4155789770"><feColorMatrix type="matrix" values="0 0 0 0 0  0 0 0 0 0  0 0 0 0 0  0 0 0 1 0" class="icon-fecolormatrix"/></filter></defs></g><rect v-gra="id" width="72" height="75.13264083862305" transform="translate(-6, -6)" style="pointer-events:none;" fill="url(#4ygRnkvei1eRyBjCheILf)"/></g> <g transform="translate(67,21.08631992340088)"><g fill-rule="" class="tp-name iconsvg-namesvg"><g transform="scale(1)"><g><path d="M23.04-15.36L23.04 0 18 0 18-13.92Q18-14.76 17.58-15.18 17.16-15.6 16.48-15.6L16.48-15.6Q15.68-15.6 15.22-15.12 14.76-14.64 14.76-13.68L14.76-13.68 14.76 0 9.72 0 9.72-13.92Q9.72-14.76 9.26-15.18 8.8-15.6 8.16-15.6L8.16-15.6Q7.44-15.6 6.96-15.12 6.48-14.64 6.48-13.68L6.48-13.68 6.48 0 1.44 0 1.44-19.84 6.48-19.84 6.48-17.92 7.2-17.92Q7.44-19 8.3-19.7 9.16-20.4 10.56-20.4L10.56-20.4Q11.88-20.4 12.8-19.7 13.72-19 14.04-17.92L14.04-17.92 14.76-17.92Q15.08-19 16.1-19.7 17.12-20.4 18.64-20.4L18.64-20.4Q20.64-20.4 21.84-19.06 23.04-17.72 23.04-15.36L23.04-15.36ZM40.16-2.88L39.44-2.88Q38.64-1 37.2-0.22 35.76 0.56 33.84 0.56L33.84 0.56Q32.04 0.56 30.46-0.12 28.88-0.8 27.68-2.12 26.48-3.44 25.78-5.32 25.08-7.2 25.08-9.6L25.08-9.6 25.08-10.24Q25.08-12.6 25.76-14.48 26.44-16.36 27.6-17.68 28.76-19 30.3-19.7 31.84-20.4 33.6-20.4L33.6-20.4Q35.72-20.4 37.02-19.68 38.32-18.96 39.08-17.44L39.08-17.44 39.8-17.44 39.8-19.84 44.84-19.84 44.84-6Q44.84-4.8 45.93-4.8L45.93-4.8 46.69-4.8 46.69 0 43.24 0Q41.88 0 41.02-0.8 40.16-1.6 40.16-2.88L40.16-2.88ZM34.96-4.24L34.96-4.24Q37.16-4.24 38.48-5.7 39.8-7.16 39.8-9.68L39.8-9.68 39.8-10.16Q39.8-12.68 38.48-14.14 37.16-15.6 34.96-15.6L34.96-15.6Q32.76-15.6 31.44-14.14 30.12-12.68 30.12-10.16L30.12-10.16 30.12-9.68Q30.12-7.16 31.44-5.7 32.76-4.24 34.96-4.24ZM54.93-4.8L67.89-4.8 67.89 0 50.61 0 50.61-8.4 63.09-14.48 63.09-15.2 50.85-15.2 50.85-19.84 67.41-19.84 67.41-11.68 54.93-5.52 54.93-4.8ZM78.41-4.8L91.37-4.8 91.37 0 74.09 0 74.09-8.4 86.57-14.48 86.57-15.2 74.33-15.2 74.33-19.84 90.89-19.84 90.89-11.68 78.41-5.52 78.41-4.8ZM110.49-9.44L110.49-19.84 115.53-19.84 115.53 0 110.49 0 110.49-2.88 109.77-2.88Q108.45 0.56 104.09 0.56L104.09 0.56Q102.61 0.56 101.33 0.08 100.05-0.4 99.09-1.4 98.13-2.4 97.59-3.9 97.05-5.4 97.05-7.44L97.05-7.44 97.05-19.84 102.09-19.84 102.09-8.48Q102.09-6.36 103.09-5.18 104.09-4 106.09-4L106.09-4Q108.37-4 109.43-5.46 110.49-6.92 110.49-9.44L110.49-9.44Z" transform="translate(-1.440000057220459, 20.399999618530273)"/></g> </g></g> </g></g><defs v-gra="od"/><defs v-gra="id"><filter id="2258a588-35c8-4007-b24e-e34eb3333761" filterUnits="userSpaceOnUse"><feColorMatrix type="matrix" values="0 0 0 0 0.99609375  0 0 0 0 0.99609375  0 0 0 0 0.99609375  0 0 0 1 0"/></filter><linearGradient x1="0" y1="1" x2="0" y2="0" id="4ygRnkvei1eRyBjCheILf"><stop offset="0%" stop-color="#ff5857"/><stop offset="100%" stop-color="#f09819"/></linearGradient><filter id="42443b3f1de60f6b6fd3b6a9844b4764" filterUnits="objectBoundingBox"><feColorMatrix type="matrix" values="0 0 0 0 0.99609375  0 0 0 0 0.99609375  0 0 0 0 0.99609375  0 0 0 1 0"/></filter></defs><mask v-gra="im" id="23d34dc1-8215-4bb0-b133-757ed1d86ec8"><g class="iconsvg-imagesvg" filter="url(#2258a588-35c8-4007-b24e-e34eb3333761)"><g><rect fill="#1A1A1A" fill-opacity="0" stroke-width="2" x="0" y="0" width="60" height="63.13264168017004" class="image-rect"/> <svg x="0" y="0" width="60" height="63.13264168017004" filtersec="colorsf467655549" class="image-svg-svg primary" style="overflow: visible;"><svg xmlns="http://www.w3.org/2000/svg" viewBox="0 1.6 67.2 70.50001"><path d="M2 53.2V3.6l31.6 19.8m31.6 29.8V3.6L23.1 30 2 16.6m31.6 33.7l31.6 19.8V20.5M2 20.5v49.6l42.1-26.4 21.1 13.4" fill="none" stroke="#333" stroke-width="4" stroke-miterlimit="10"/></svg></svg> <defs><filter id="colors2508222093"><feColorMatrix type="matrix" values="0 0 0 0 0.1015625  0 0 0 0 0.1015625  0 0 0 0 0.1015625  0 0 0 1 0" class="icon-fecolormatrix"/></filter> <filter id="colorsf467655549"><feColorMatrix type="matrix" values="0 0 0 0 0.99609375  0 0 0 0 0.99609375  0 0 0 0 0.99609375  0 0 0 1 0" class="icon-fecolormatrix"/></filter> <filter id="colorsb4155789770"><feColorMatrix type="matrix" values="0 0 0 0 0  0 0 0 0 0  0 0 0 0 0  0 0 0 1 0" class="icon-fecolormatrix"/></filter></defs></g></g></mask>
  </svg>
</svg>


